<?xml version='1.0' encoding='utf-8'?>
<svg xmlns="http://www.w3.org/2000/svg" width="194.24px" height="231.92px" enable-background="new 0 0 194.24 231.919" version="1.1" viewBox="0 0 194.24 231.919">
	<path d="m77.705 143.78c-42.928 18.818-55.806 28.85-60.896 33.355-7.844 6.941-12.183 32.816-16.809 54.784h194.24c-4.626-21.968-8.966-47.843-16.81-54.783-5.088-4.506-17.493-14.279-60.423-33.101l-39.302-0.255z" clip-rule="evenodd" fill="#FFDECC" fill-rule="evenodd"/>
	<path d="m77.704 143.78c-42.927 18.818-55.804 28.85-60.895 33.355-7.844 6.941-12.183 32.816-16.809 54.784h194.24c-4.626-21.968-8.966-47.843-16.81-54.783-5.088-4.506-17.493-14.279-60.423-33.101l-39.303-0.255z" clip-rule="evenodd" fill="#333" fill-rule="evenodd"/>
	<path d="m76.278 106.26v47.585c11.463 13.554 30.221 14.041 41.686 0v-47.585c0-25.694-41.686-25.694-41.686 0z" clip-rule="evenodd" fill="#F6C5A0" fill-rule="evenodd"/>
		<ellipse transform="matrix(-.3127 -.9498 .9498 -.3127 -8.0372 169.88)" cx="57.441" cy="87.846" rx="12.102" ry="6.999" clip-rule="evenodd" fill="#F6C5A0" fill-rule="evenodd"/>
		<ellipse transform="matrix(.3129 -.9498 .9498 .3129 10.438 190.12)" cx="136.62" cy="87.846" rx="12.103" ry="7" clip-rule="evenodd" fill="#F6C5A0" fill-rule="evenodd"/>
	<path d="m97.23 164.2s-29.088 6.942-29.088 8.703 11.068 59.019 11.068 59.019h39.491l4.526-58.767-25.997-8.955z" clip-rule="evenodd" fill="#9FBAC4" fill-rule="evenodd"/>
	<polygon points="76.278 144.4 76.278 153.85 85.333 231.92 69.764 231.92 52.636 197.15 68.986 186.25 49.005 176.91 67.378 148.4" clip-rule="evenodd" fill="#1A1A1A" fill-rule="evenodd"/>
	<polygon points="117.96 144.45 117.96 153.85 108.82 231.92 124.39 231.92 141.52 197.15 125.17 186.25 145.15 176.91 128.82 149.27" clip-rule="evenodd" fill="#1B1B1B" fill-rule="evenodd"/>
	<path d="m88.158 173.85l5.048 7.821h7.829l5.05-7.821-8.854-9.653-9.073 9.653z" clip-rule="evenodd" fill="#28A8E3" fill-rule="evenodd"/>
	<polygon points="93.206 181.67 86.02 231.92 108.22 231.92 101.04 181.67" clip-rule="evenodd" fill="#28A8E3" fill-rule="evenodd"/>
	<path d="m76.278 138.12l-1.822 7.089 5.1 36.91 17.674-17.924-20.952-26.075z" clip-rule="evenodd" fill="#fff" fill-rule="evenodd"/>
	<path d="m76.278 129.31v1.504s10.649 12.639 20.805 13.095c10.157 0.456 20.881-12.236 20.881-12.236v-2.311" opacity=".2"/>
		<path d="m97.156 20.834c-64.125 0-39.547 87.837-35.359 94.566 4.618 7.421 25 23.778 35.359 23.778 10.361 0 30.739-16.357 35.36-23.778 4.19-6.729 28.766-94.566-35.36-94.566z" clip-rule="evenodd" fill="#F6C5A0" fill-rule="evenodd"/>
		<path d="m125.92 22.886c-21.657-17.042-55.098-6.882-65.195 7.32-12.637 17.772-8.168 44.756-5.176 65.031-1e-3 -0.03 0-0.058-1e-3 -0.088 0.034 0.204 0.075 0.412 0.131 0.63 0.042 0.165 0.403 0.632 0.473 0.76 0.105 0.191 0.89-0.017 1.15-0.143 0.095-0.044 0.137-0.168 0.142-0.271 0.121-1.789 0.012-5.336 8e-3 -5.376-0.237-2.789-0.844-5.477-1.252-8.203 2.027-12.782 8.026-15.469 11.17-30.886 0.665-1.031 1.377-2.029 2.123-3.002 0.859-1.119 1.749-2.195 2.786-3.152 0.546-0.332 1.072-0.692 1.579-1.086 11.655-4.27 23.673 0.852 34.676 5.342 4.206 1.717 8.926 3.747 13.565 3.387 1.981-0.154 3.504-1.461 3.65-3.135 5.267 15.774 9.607 23.09 12.167 34.657-0.351 2.009-0.729 4.016-0.903 6.078-5e-3 0.04-0.112 3.587 7e-3 5.376 6e-3 0.104 0.048 0.228 0.143 0.271 0.26 0.126 1.045 0.334 1.15 0.143 0.07-0.128 0.431-0.595 0.474-0.76 0.197-0.772 0.237-1.423 0.275-2.198 0.134-1.011 0.312-2.095 0.445-3.186 3.342-12.517 9.483-62.133-13.587-67.509zm-32.825 16.749c-0.36-0.113-0.72-0.217-1.08-0.322 0.535 0.131 1.071 0.27 1.608 0.42-0.176-0.036-0.352-0.067-0.528-0.098z" fill="#605343"/>
	<path d="m117.96 138.12l1.438 6.972-4.792 37.396-17.38-18.293 20.734-26.075z" clip-rule="evenodd" fill="#fff" fill-rule="evenodd"/>
	<polyline points="76.278 138.12 97.23 164.2 117.96 138.12 117.96 137.5 97.23 163.46 76.278 137.5 76.278 138.12" opacity=".05"/>
	<polygon points="93.206 181.67 101.04 181.67 101.07 181.93 93.169 181.93" clip-rule="evenodd" fill-rule="evenodd" opacity=".1"/>
<path d="m44.48 56.992c0-29.133 23.617-52.75 52.75-52.75s52.75 23.617 52.75 52.75" clip-rule="evenodd" fill="#CC8D31" fill-rule="evenodd"/>
<path d="m93.235 4.412c-5.296 0.402-10.371 1.583-15.115 3.435v30.185c0 2.62-1.955 4.744-4.366 4.744-2.41 0-4.365-2.124-4.365-4.744v-25.807c-14.923 9.317-24.859 25.878-24.859 44.767h-0.982c-1.657 0-3 1.343-3 3v0.214c0 1.657 1.343 3 3 3h108.11c1.657 0 3-1.343 3-3v-0.214c0-1.657-1.343-3-3-3h-1.624c0-19.039-10.09-35.719-25.211-44.994v26.033c0 2.62-1.955 4.744-4.366 4.744-2.41 0-4.365-2.124-4.365-4.744v-30.324c-4.45-1.699-9.187-2.812-14.121-3.246" clip-rule="evenodd" fill="#FBAE3C" fill-rule="evenodd"/>
<path d="M105.198,8.333c0,2.762-2.618,5-5.847,5h-3.502  c-3.229,0-5.847-2.238-5.847-5V5c0-2.762,2.618-5,5.847-5h3.502c3.229,0,5.847,2.238,5.847,5V8.333z" clip-rule="evenodd" fill="#FBAE3C" fill-rule="evenodd"/>
</svg>