<?xml version="1.0" encoding="UTF-8"?>
<svg version="1.1" viewBox="0 0 472.61 433.58" xmlns="http://www.w3.org/2000/svg" xmlns:xlink="http://www.w3.org/1999/xlink">
 <defs>
  <linearGradient id="a">
   <stop stop-color="#fdca01" offset="0"/>
   <stop stop-color="#fda201" offset="1"/>
  </linearGradient>
  <linearGradient id="b">
   <stop stop-color="#fdca01" offset="0"/>
   <stop stop-color="#fcfe76" offset="1"/>
  </linearGradient>
  <linearGradient id="c">
   <stop stop-color="#fff" offset="0"/>
   <stop stop-color="#fff" stop-opacity="0" offset="1"/>
  </linearGradient>
  <linearGradient id="z" x1="319.78" x2="317.96" y1="527.74" y2="574.71" gradientUnits="userSpaceOnUse">
   <stop stop-color="#ff9" offset="0"/>
   <stop stop-color="#ffcce0" offset="1"/>
  </linearGradient>
  <linearGradient id="aa" x1="411.53" x2="420.7" y1="369" y2="325.78" gradientUnits="userSpaceOnUse">
   <stop stop-color="#ff9" offset="0"/>
   <stop stop-color="#ffc763" offset="1"/>
  </linearGradient>
  <linearGradient id="ab" x1="416.54" x2="424.89" y1="480.49" y2="506.5" gradientUnits="userSpaceOnUse" xlink:href="#c"/>
  <linearGradient id="ac" x1="299.58" x2="298.55" y1="515.1" y2="487.45" gradientUnits="userSpaceOnUse">
   <stop stop-color="#013397" offset="0"/>
   <stop offset="1"/>
  </linearGradient>
  <linearGradient id="ad" x1="348.75" x2="323.13" y1="384.05" y2="369.76" gradientUnits="userSpaceOnUse" xlink:href="#b"/>
  <linearGradient id="ae" x1="248.58" x2="273.86" y1="375.58" y2="395.22" gradientUnits="userSpaceOnUse" xlink:href="#a"/>
  <linearGradient id="af" x1="339.03" x2="318.64" y1="389.3" y2="400.17" gradientTransform="matrix(.98255 -.18602 .18602 .98255 -61.511 73.556)" gradientUnits="userSpaceOnUse" xlink:href="#a"/>
  <linearGradient id="ag" x1="354.88" x2="350.29" y1="438.62" y2="425.49" gradientUnits="userSpaceOnUse" xlink:href="#b"/>
  <linearGradient id="ah" x1="276.4" x2="272" y1="460.27" y2="434.89" gradientUnits="userSpaceOnUse" xlink:href="#b"/>
  <linearGradient id="ai" x1="429.99" x2="420.53" y1="621.58" y2="589.79" gradientUnits="userSpaceOnUse">
   <stop stop-color="#ff9" offset="0"/>
   <stop stop-color="#e5e547" offset="1"/>
  </linearGradient>
  <linearGradient id="aj" x1="227.52" x2="212.7" y1="366.76" y2="333.54" gradientUnits="userSpaceOnUse" xlink:href="#b"/>
  <linearGradient id="ak" x1="309.84" x2="310.85" y1="528.58" y2="517.72" gradientTransform="translate(-.50508 -1.0102)" gradientUnits="userSpaceOnUse">
   <stop stop-color="#ff9bff" offset="0"/>
   <stop stop-color="#fff4ff" offset="1"/>
  </linearGradient>
  <linearGradient id="al" x1="385.76" x2="406.24" y1="559.64" y2="541.71" gradientUnits="userSpaceOnUse">
   <stop stop-color="#980101" offset="0"/>
   <stop stop-color="#2f0000" offset="1"/>
  </linearGradient>
  <linearGradient id="am" x1="300.09" x2="278.09" y1="479.85" y2="486.81" gradientUnits="userSpaceOnUse">
   <stop stop-color="#b3d8ff" offset="0"/>
   <stop stop-color="#fff" offset="1"/>
  </linearGradient>
  <linearGradient id="an" x1="441.88" x2="470.68" y1="315.8" y2="287.95" gradientUnits="userSpaceOnUse" xlink:href="#b"/>
  <linearGradient id="ao" x1="195.3" x2="205.93" y1="416.74" y2="401.79" gradientUnits="userSpaceOnUse" xlink:href="#a"/>
  <linearGradient id="ap" x1="351.79" x2="344.34" y1="463.45" y2="448.17" gradientUnits="userSpaceOnUse" xlink:href="#a"/>
  <linearGradient id="aq" x1="337.14" x2="344.21" y1="526.45" y2="546.91" gradientUnits="userSpaceOnUse" xlink:href="#c"/>
  <filter id="y" color-interpolation-filters="sRGB">
   <feGaussianBlur stdDeviation="8.250451"/>
  </filter>
  <linearGradient id="ar" x1="432.13" x2="420.71" y1="615.21" y2="585.21" gradientUnits="userSpaceOnUse" xlink:href="#a"/>
  <linearGradient id="as" x1="417.71" x2="442.88" y1="429.15" y2="438.44" gradientUnits="userSpaceOnUse" xlink:href="#a"/>
 </defs>
 <g transform="translate(-125.64 -250.96)">
  <rect x="171.22" y="311.06" width="401.03" height="357.59" ry=".80977" fill="#ace"/>
  <path d="m172.03 306.06c-3.1321 0-5.8125 2.6804-5.8125 5.8125v355.97c0 3.1321 2.6804 5.8125 5.8125 5.8125h399.41c3.1321 0 5.8125-2.6804 5.8125-5.8125v-355.97c0-3.1321-2.6804-5.8125-5.8125-5.8125h-399.41zm4.1875 10h391.03v347.59h-391.03v-347.59z" color="#000000" fill="#fff" style="block-progression:tb;text-indent:0;text-transform:none"/>
  <path d="m465.58 274.54c-0.50634 7e-3 -0.99747 0.0155-1.5 0.0312-7.1628 0.37491-15.111 2.5261-20.031 7.5312-5.9647-4.9734-14.424-8.6332-21.781-4.4062-16.163 8.0739-28.454 24.122-32.219 41.844-3.435 24.813-1.8518 50.079 0.125 75.062-0.33049-0.0516-0.70002-0.0713-1.0938-0.0625-4.9621-1.1223-10.01-1.6848-15.062-2.25-0.6739-0.0754-1.3591-0.14434-2.0625-0.1875-0.86616-2.5851-2.4142-5.0509-4.5625-7.1875-6.2134-7.467-15.639-11.061-25.219-10.625-5.2338-0.11776-10.257 1.3407-15.188 2.9375 7.5701 1.5295 15.863 5.2202 20.25 11.25-11.381-1.2705-24.116 1.2112-33.531 15.25 4.8325-1.4658 8.64-2.4368 12.938-1.5938-1.1494 0.58152-2.1889 1.1492-3 1.6875-4.0136 2.664-8.4095 4.7422-12.406 7.4688-11.219-21.814-21.52-44.661-37.5-63.344-8.1297-7.3057-19.271-12.833-30.438-12.469-11.609 0.60324-20.184 9.9572-28.625 16.688-17.413 0.77716-29.093 16.722-35.719 31.25-5.5814 14.943-6.4007 31.302-9.875 46.844-2.2415 12.036-3.657 24.78-11.688 34.594-3.7613 6.9012-10.525 12.985-11.875 21.031-0.76678 6.7394 4.8315 13.066 11.75 11.969 14.423-2.7037 27.591-10.642 39.781-18.531 14.944-9.1781 22.475-25.629 33.531-38.688 4.3206-5.6293 8.5886-11.323 12.969-16.906 8.7745 11.647 18.429 23.03 27.531 34.688-0.19861 0.50242-0.33592 0.84386-0.71875 2.0938-6.2068 18.642-2.1401 39.236 0.78125 58.219 1.8068 7.9312 3.1372 16.306 5.9688 24-2.8716 1.6704-5.302 4.0661-6.9688 7.375-5.1317 9.2573-8.4493 19.584-8.875 30.25 1.5332-0.96688 5.9888-8.2839 5.4375-6.5312-2.5078 8.1246-0.22305 17.377 5.5625 23.562 1.0526-6.1173 3.0092-2.6821 5.5625 0.15625 3.8064 3.696 8.4923 6.5582 13.312 8.9062-1.177-3.1474-5.7308-9.5217 0.59375-5.5625 10.254 3.6794 20.832 4.6731 31.438 4.0625 0.72152 0.16868 1.4254 0.30353 2.1562 0.4375 0.0421 8e-3 0.0829 0.0237 0.125 0.0312 0.50421 0.091 1.0235 0.17471 1.5312 0.25 0.58312 0.0871 1.1632 0.15176 1.75 0.21875 0.17766 0.0202 0.35333 0.0441 0.53125 0.0625 0.26142 0.0272 0.51917 0.0706 0.78125 0.0937 0.56519 0.0502 1.1207 0.0919 1.6875 0.125 0.21774 0.0127 0.43813 0.0211 0.65625 0.0312 3.3246 5.4097 9.2491 9.9356 14 14.094 9.1858 1.9134 18.059-1.0966 25.906-5.75 0.1905-5.599-1.008-11.889-1.5938-17.875 0.0322-0.0185 0.0618-0.044 0.0937-0.0625 0.89552-0.50277 1.786-1.0199 2.6562-1.5625 10.054 6.1047 15.644 18.455 25.906 23.719-27.613 15.283-48.164 43.169-82.705 44.538 29.667-7.8266 179.65 1.4722 195.18 1.4448-0.55609-7.7097-8.0152-21.76-2.7543-28.608 14.817-11.662 34.904-12.414 52.969-14.906 5.4583-0.57501 0.75707-3.2324 6.2277-3.6741l-0.53572-64.062c-20.459 8.0172-29.42 18.793-49.973 26.424-17.621 6.2348-36.279 10.061-55 11-2.5946 0.54201-5.1941 1.255-7.75 2.0625 2.1388-7.0944 3.6727-14.451 6.5938-21.188 4.9944-9.2774 15.944-13.446 20.531-22.969-1.5062 5.785 2.2474 3.9562 4.6562 0.90625 4.1666-5.6704 5.0155-13.031 5.125-19.906 2.3087 3.5711 4.8816 7.344 5.4688 0.875 2.1724-8.8834-0.45375-18.816-7.0312-25.219 3.7248-1.4799 18.183-0.65634 8.5625-4.9688-7.6443-4.9821-16.843-7.9501-26-6.9688 3.1248-1.4226 9.2759-3.4198 9.25-4.4688-3.416-0.86169-6.8876-1.1802-10.375-1.2812-8.0003-20.284-15.207-41.187-26.531-59.75-0.99967-1.1722-2.1855-2.9111-3.3125-3.9688 2.6373-9.8614 4.2598-20.058 9.4062-29.125 4.766-9.6774 10.042-20.265 16.375-28.344 20.385 8.7289 42.788 12.532 64.906 13.25 8.2839-0.9686 18.347-6.0049 19.688-15.062-1.2076-10.849-13.135-15.127-21.125-20-15.497-10.132-22.508-27.951-31.406-43.375-7.2217-10.957-15.178-25.305-29.688-26.656-0.99919-0.12234-1.9932-0.19458-3-0.21875-0.50338-0.0121-1.0249-7e-3 -1.5312 0z" fill="#200086" fill-opacity=".36471" filter="url(#y)"/>
  <path d="m457.72 250.97c-0.50634 7e-3 -0.99747 0.0155-1.5 0.0312-7.1628 0.37491-15.111 2.5261-20.031 7.5312-5.9647-4.9734-14.424-8.6332-21.781-4.4062-16.163 8.0739-28.454 24.122-32.219 41.844-3.435 24.813-1.8518 50.079 0.125 75.062-0.33049-0.0516-0.70002-0.0713-1.0938-0.0625-4.9621-1.1223-10.01-1.6848-15.062-2.25-0.6739-0.0754-1.3591-0.14434-2.0625-0.1875-0.86616-2.5851-2.4142-5.0509-4.5625-7.1875-6.2134-7.467-15.639-11.061-25.219-10.625-5.2338-0.11776-10.257 1.3407-15.188 2.9375 7.5701 1.5295 15.863 5.2202 20.25 11.25-11.381-1.2705-24.116 1.2112-33.531 15.25 4.8325-1.4658 8.64-2.4368 12.938-1.5938-1.1494 0.58152-2.1889 1.1492-3 1.6875-4.0136 2.664-8.4095 4.7422-12.406 7.4688-11.219-21.814-21.52-44.661-37.5-63.344-8.1297-7.3057-19.271-12.833-30.438-12.469-11.609 0.60324-20.184 9.9572-28.625 16.688-17.413 0.77716-29.093 16.722-35.719 31.25-5.5814 14.943-6.4007 31.302-9.875 46.844-2.2415 12.036-3.657 24.78-11.688 34.594-3.7613 6.9012-10.525 12.985-11.875 21.031-0.76678 6.7394 4.8315 13.066 11.75 11.969 14.423-2.7037 27.591-10.642 39.781-18.531 14.944-9.1781 22.475-25.629 33.531-38.688 4.3206-5.6293 8.5886-11.323 12.969-16.906 8.7745 11.647 18.429 23.03 27.531 34.688-0.19861 0.50242-0.33592 0.84386-0.71875 2.0938-6.2068 18.642-2.1401 39.236 0.78125 58.219 1.8068 7.9312 3.1372 16.306 5.9688 24-2.8716 1.6704-5.302 4.0661-6.9688 7.375-5.1317 9.2573-8.4493 19.584-8.875 30.25 1.5332-0.96688 5.9888-8.2839 5.4375-6.5312-2.5078 8.1246-0.22305 17.377 5.5625 23.562 1.0526-6.1173 3.0092-2.6821 5.5625 0.15625 3.8064 3.696 8.4923 6.5582 13.312 8.9062-1.177-3.1474-5.7308-9.5217 0.59375-5.5625 10.254 3.6794 20.832 4.6731 31.438 4.0625 0.72152 0.16868 1.4254 0.30353 2.1562 0.4375 0.0421 8e-3 0.0829 0.0236 0.125 0.0312 0.50421 0.091 1.0235 0.17471 1.5312 0.25 0.58312 0.0871 1.1632 0.15176 1.75 0.21875 0.17766 0.0202 0.35333 0.0441 0.53125 0.0625 0.26142 0.0272 0.51917 0.0706 0.78125 0.0937 0.56519 0.0502 1.1207 0.0919 1.6875 0.125 0.21774 0.0127 0.43813 0.021 0.65625 0.0312 3.3246 5.4097 9.2491 9.9356 14 14.094 9.1858 1.9134 18.059-1.0966 25.906-5.75 0.1905-5.599-1.008-11.889-1.5938-17.875 0.0322-0.0185 0.0618-0.044 0.0937-0.0625 0.89552-0.50277 1.786-1.0199 2.6562-1.5625 10.054 6.1047 15.644 18.455 25.906 23.719-5.7788 3.0648-11.537 6.1622-17.281 9.2188-14.95 11.847-24.826 30.031-42.594 38.531-15.812 9.0407-32.403 16.717-49.094 24.062h84.875c4.0362-4.1361 7.8905-8.4348 11.438-13-0.51976 4.4119-1.3899 8.7353-2.5312 13h134.12c-4.7455-9.6234-8.5865-19.564-10-30.375-0.55609-7.7097-4.4797-17.215 0.78125-24.062 14.817-11.662 34.904-12.414 52.969-14.906 5.4583-0.57501 10.936-1.0895 16.406-1.5312v-65.312c-20.459 8.0172-40.135 17.9-60.688 25.531-17.621 6.2348-36.279 10.061-55 11-2.5946 0.54201-5.1941 1.255-7.75 2.0625 2.1388-7.0944 3.6727-14.451 6.5938-21.188 4.9944-9.2774 15.944-13.446 20.531-22.969-1.5062 5.785 2.2474 3.9562 4.6562 0.90625 4.1666-5.6704 5.0155-13.031 5.125-19.906 2.3087 3.5711 4.8816 7.344 5.4688 0.875 2.1724-8.8834-0.45375-18.816-7.0312-25.219 3.7248-1.4799 18.183-0.65634 8.5625-4.9688-7.6443-4.9821-16.843-7.9501-26-6.9688 3.1248-1.4226 9.2759-3.4198 9.25-4.4688-3.416-0.86169-6.8876-1.1802-10.375-1.2812-8.0003-20.284-15.207-41.187-26.531-59.75-0.99967-1.1722-2.1855-2.9111-3.3125-3.9688 2.6373-9.8614 4.2598-20.058 9.4062-29.125 4.766-9.6774 10.042-20.265 16.375-28.344 20.385 8.7289 42.788 12.532 64.906 13.25 8.2839-0.9686 18.347-6.0049 19.688-15.062-1.2076-10.849-13.135-15.127-21.125-20-15.497-10.132-22.508-27.951-31.406-43.375-7.2217-10.957-15.178-25.305-29.688-26.656-0.99919-0.12234-1.9932-0.19458-3-0.21875-0.50338-0.0121-1.0249-7e-3 -1.5312 0z" stroke="#000" stroke-linejoin="round" stroke-width="5"/>
  <path d="m572.25 532.44c-9.0198 3.5974-27.489 11.094-42.594 18.125-20.714 9.6428-50.013 17.862-69.656 18.219-3.5758 0.065-8.2704 1.191-13.594 2.9688-0.74668 2.2856-1.5761 4.5417-2.5625 6.7188 0.41926 1.8388 0.85115 3.5829 1.4688 4.3438 7.4992-3.4767 16.407-1.2711 23.75 1.6562-4.1105 1.1732-8.1932 1.7288-12.062 3.375 7.6722 1.776 18.59 5.1322 20.281 14.656-3.5616-0.86033-7.3576-1.2635-10.938-0.625 11.254 7.0715 16.971 20.796 15.469 33.969-2.2566-3.4307-4.1545-7.1214-7.125-10 0.22947 1.5116 0.99584 4.3228 1.125 6.4062 1.0722 6.7714 1.0941 10.844-3.4375 2.75 0.12017 3.852-1.2243 7.5136-2.9688 10.906-1.4836 0.72642-2.3078-6.562-3.7812-9 0.10732 2.8405-0.0558 5.6979-0.6875 8.4688-3.3767 14.152-18.926 20.237-31.719 23.188-13.244-5.4715-27.063-16.559-27.438-32.031-2.0134 3.8746-3.3419 11.315-4.5938 16.562-4.376-7.655-6.9708-16.902-4.25-25.562-4.264 3.9583-7.092 8.9664-10.375 13.75-0.18061-7.2007-0.51865-15.362 4.5312-21.156 0.0203-0.78907-4.2188 1.0789-5.5625 1.4688-2.8051 0.45655-12.798 7.1818-8.4062 1.8438 6.3396-10.439 14.907-19.461 25.25-25.719-1.6685-0.1251-3.3101-0.28003-4.9062-0.4375-1.2686-0.23867-2.4512-0.60285-3.5938-1.0312-6.8226 3.6233-12.544 6.6927-14.594 7.5312-7.8571 3.2143-17.848 16.786-31.062 30-10.865 10.865-50.527 28.777-64.438 34.875h79.031c7.6714-7.5182 14.254-14.49 14.688-16.656 1.0714-5.3571 3.5625-19.625 3.5625-19.625s1.7991 4.9732-0.34375 23.188c-0.48692 4.1388-1.5232 8.6268-2.8125 13.094h131.19c-1.0425-2.0106-2.0684-4.0117-3.0312-5.9375-6.7857-13.571-10.353-40-9.2812-45 1.0714-5 1.7768-8.5714 18.562-15 12.589-4.8214 42.656-7.6463 56.906-8.75v-61.531z" fill="url(#ar)"/>
  <path d="m442.59 580.97c-1.0871 2.0629-2.3211 4.0579-3.8125 5.9375-7.6466 10.145-20.543 11.581-32.656 11.031-3.2929 1.6915-6.6931 3.7688-9.6875 6.2188-9.8214 8.0357-15.375 17.125-15.375 17.125s11.246-5.3571 16.781-3.75c-10.179 4.2857-9.2812 17.156-9.2812 17.156s6.7857-10.888 12.5-11.781c-6.9643 12.321-0.53125 24.094-0.53125 24.094s3.0312-15.719 8.0312-18.219c-1.0714 6.4286-2.3036 13.951 5.375 23.594s21.254 21.058 21.254 21.058 20.817-11.34 26.589-24.808c2.6786-6.25 2.1384-13.933 0.53125-20.719 3.75 2.3214 6.9688 13.375 6.9688 13.375s2.692-6.4152-0.34375-12.844c1.7857 0.71429 5 5.3438 5 5.3438s-0.35714-8.192-3.75-12.656c4.6429 0.17857 9.625 7.8438 9.625 7.8438s0.375-18.045-18.375-27.688c5.5357-2.6786 12.844-1.4062 12.844-1.4062s-2.3036-8.0402-22.125-10.719c1.7857-3.3929 10-5 10-5s-13.232-3.3884-17.875 1.9688z" fill="url(#ai)"/>
  <path d="m361.81 370.53c-5.2225-0.0851-10.603 0.29911-16.094 1.2812-43.513 7.7828-77.193 48.671-79.562 58.469 0.48584-1.3672 2.875-6.8438 9.9062-6.8438 8.0357 0 17.344 14.812 17.344 14.812s-12.17-12.674-18.062-13.031c-5.8928-0.35714-17.295 11.442-13.188 48.406 4.1071 36.964 11.781 51.781 11.781 51.781s16.246 21.246 26.781 24.281c10.536 3.0357 50.161-1.0804 83.375-13.938 3.9858-1.5429 8.0435-3.1566 12.094-4.8438-1.3738-9.157-4.3448-17.251-10.812-32.562 21.222-24.87 39.899-33.645 71.656-34.125 1.594-0.024 3.1888-0.0425 4.7812-0.0312-7.1567-19.014-20.122-51.249-26.625-59.312-0.60866-0.75473-1.3905-1.6199-2.25-2.5312-1.3109 2.9029-2.8849 5.4696-5.0312 7.4688-4.1015 2.1369-7.3142-2.8898-11.688-3.625-16.883-1.847-22.135-20.836-30.469-22.812-0.89547-3.0921-1.6868-6.3694-2.375-9.7812-6.7889-1.7931-14.008-2.9394-21.562-3.0625zm42.188 10.938c1.0295 3.222 2.1865 6.407 3.5 9.5312 2.0786 0.2793 4.2868-1.9775 6.125-4.125-2.9787-1.8726-6.2001-3.6798-9.625-5.4062z" fill="url(#as)"/>
  <path transform="translate(1.2627 -.50508)" d="m354.56 518.18c0 4.0796-10.317 7.3867-23.044 7.3867s-23.044-3.3072-23.044-7.3867c0-4.0796 10.317-7.3867 23.044-7.3867s23.044 3.3072 23.044 7.3867z"/>
  <path transform="matrix(.84245 -.53877 .53877 .84245 -211.06 290.95)" d="m411.07 499.77c0 7.0515-10.513 12.768-23.482 12.768s-23.482-5.7164-23.482-12.768 10.513-12.768 23.482-12.768 23.482 5.7164 23.482 12.768z"/>
  <path d="m458.81 466.19c-17.97 0.11837-57.03 3.5536-82.031 29.312-9.4029 9.6878-14.996 15.629-20.795 20.709-8.6655-3.5161-19.73-4.7896-35.515-3.7602-8.5477 0.55744-15.988 1.3045-22.378 6.5828-10.245-1.8217-20.454-2.0785-27.375 1.5-10.403 5.3791-14.906 30.281-14.906 30.281s6.0692-10.355 9.6047-8.5869c-11.617 14.647-1.5109 27.774-1.5109 27.774l2.0312-4.5312c4.0406 7.8287 13.125 12.875 13.125 12.875s-1.5186-3.2795-2.7812-6.5625c34.598 18.435 78.023-1.5135 88.125-3.2812 16.162 9.0914 20.475 26.274 35.375 27.031 14.9 0.75762 31.565 2.5189 40.656-14.906s6.2887-28.276 14.875-38.125 18.969-12.889 18.969-27.031c2.2728 5.0508 2 10.594 2 10.594s7.0777-5.2944 5.5625-25.75c3.7881 4.5457 5.5625 7.0625 5.5625 7.0625s5.0509-15.638-9.3438-26.75l11.875-2.0312s-16.926-12.112-33.594-4.0312c3.283-5.5558 12.125-8.0938 12.125-8.0938s-3.6664-0.32071-9.6562-0.28125z" fill="#ff9"/>
  <path d="m332.47 494.13s5.8084-7.4499 15.531-13.637c12.345-7.8558 23.739-5.3033 23.739-5.3033s-15.152 2.2728-21.971 7.0711c-6.8185 4.7982-13.511 11.869-13.511 11.869s1.1364 4.9245 3.9143 7.955 8.5863 8.0812 8.5863 8.0812-7.474-3.6438-10.48-7.7024c-2.5254-3.4093-5.8084-8.3338-5.8084-8.3338z"/>
  <path d="m327.67 470.01s30.052-24.496 32.956-24.622 4.7982 6.566 4.7982 6.566-0.3788-9.2176-2.5254-9.5964-13.31 6.6304-19.319 11.743c-6.617 5.63-12.088 10.902-15.91 15.91z"/>
  <path d="m324.64 447.41s10.48-16.541 23.486-26.517c13.006-9.9752 21.718-14.773 27.4-11.996 5.6821 2.7779 6.3134 8.9651 6.4397 25.38-1.2627-8.8388-2.1466-22.602-8.0812-23.739-5.9346-1.1364-23.612 9.849-30.683 17.299-7.0711 7.4499-18.562 19.572-18.562 19.572z"/>
  <path d="m262.64 468.75s-2.0203-37.249 10.228-39.775c12.248-2.5254 25.759 19.698 27.779 25.38 2.0203 5.6821 5.3033 20.834-0.37881 25.254-5.6821 4.4194-27.274 5.5558-30.81 0.50508s-6.8185-11.364-6.8185-11.364z" fill="url(#ah)"/>
  <path d="m236.16 313.88c-3.2825 0.0928-6.2707 0.83106-8.875 2.0938-8.3338 4.0406-17.438 12.875-17.438 12.875s9.3639-1.2644 16.688 3.2812c7.3236 4.5457 8.3438 8.0938 8.3438 8.0938s-6.3231-9.1199-27.031-9.625c-20.708-0.50508-34.35 26.284-36.875 35.375-2.5254 9.0914-9.3445 53.026-12.375 62.875s-19.19 28.293-18.938 33.344c0.25254 5.0508 1.26 10.346 9.5938 10.094s42.927-16.665 53.281-31.312 31.062-41.406 31.062-41.406-9.3477-16.68-24.5-17.438c-15.152-0.75762-20.957 7.3377-25.25 14.156-4.2931 6.8185-10.844 20.688-10.844 20.688s6.3003-33.566 29.281-36.344 33.595 17.145 39.656 24.469c5.1422 6.2135 17.819 22.192 22.125 27.625 0.0258-0.0604 0.0365-0.12719 0.0625-0.1875-7e-3 -6.8845 5.5024-12.36 9.4062-17.719 8.1661-9.5868 17.662-18.522 28.188-25.938-7.4356-15.248-28.724-57.532-40.094-65.594-9.5491-6.7712-18.247-9.6104-25.469-9.4062z" fill="url(#ae)"/>
  <path d="m385.12 381.87s-6.8185-69.953 0.50507-91.419c7.3236-21.466 28.032-37.881 38.133-36.113 10.102 1.7678 24.749 18.435 24.749 18.435s-5.3033-10.354-9.849-13.637c3.5355-4.2932 18.688-8.8388 30.052-4.2932 11.364 4.5457 24.749 28.789 29.8 39.143 5.0508 10.354 15.152 24.749 27.022 30.81 11.869 6.0609 16.415 10.859 16.92 16.162 0.50507 5.3033-9.849 13.637-19.698 13.385-9.849-0.25254-51.013-4.0406-71.973-18.688-20.961-14.647-44.699-41.921-44.699-41.921s-13.637 34.85-8.8388 66.165 12.374 38.386 12.374 38.386l-0.50508-5.3033s7.5762-2.0203 16.668-22.476 15.152-38.638 15.152-38.638l16.162 11.112s-18.94 28.537-22.981 48.74-7.3236 21.213-7.3236 21.213-16.668 0.25254-28.284-9.0914-13.385-21.971-13.385-21.971z" fill="url(#an)"/>
  <path d="m406.91 297.69c10.278 11.255 21.037 22.136 32.719 31.906-7.0929 18.727-12.94 38.432-24.062 55-2.0231 2.3124-5.1837 6.7931-8.0625 6.4062-10.274-24.436-11.829-52.218-5.1562-77.812 1.3005-5.1958 2.7496-10.898 4.5625-15.5z" fill="url(#aa)"/>
  <path d="m334.31 350.72c-5.2338-0.11776-10.257 1.3407-15.188 2.9375 7.5701 1.5295 15.863 5.2202 20.25 11.25-11.381-1.2705-24.1 1.2251-33.516 15.264 6.3953-1.9398 10.954-3.0363 17.297-0.17018-7.1113 6.0981-12.362 15.337-9.875 24.969 0.5802 3.7634 2.0802 7.2898 3.2188 10.906 3.4118-10.869 13.925-18.513 22.379-18.817 7.6999-0.54505 14.427-9.0915 20.759-13.107 7.6587-6.9081 6.33-16.205-0.10714-22.607-6.2134-7.467-15.639-11.061-25.219-10.625z"/>
  <path d="m344.82 394.68s-10.179 0.17857-17.321 4.2857c-7.1429 4.1072-10.714 11.429-10.714 11.429s-5-12.5 0.89286-20.893 9.2857-9.8214 9.2857-9.8214-5.3571-4.2857-16.071-2.8571c6.25-6.0714 11.964-9.2857 20.179-9.8214 8.2143-0.53572 10 0.17857 10 0.17857l4.2857 5s-0.89285-5.7143-6.7857-11.25-12.321-7.3214-12.321-7.3214 15.357-3.75 26.071 3.9286 11.786 16.786 11.786 16.786 1.0714 7.3214-4.1071 11.25-15.179 9.1071-15.179 9.1071z" fill="url(#ad)"/>
  <path d="m416 510.25c-5.9247-0.0715-12.862 2.3486-14.594 6.375-8.4194 9.3708-29.782 16.819-52.19 20.071s-45.863 2.309-58.466-5.1022c-3.8001 0.34943-4.7218 4.9987-5.5625 6.9688-1.3719 5.0139-1.2878 10.049-0.125 14.812-0.26093-0.10398-0.5692-0.21205-0.78125-0.3125-3.3928-1.6072-5.7188-4.8125-5.7188-4.8125l3.2188-6.25s-3.7411 1.8036-6.0625 6.625-0.71875 9.8125-0.71875 9.8125 0.72768-4.8214 2.1562-7.5c0 0 2.1428 1.5938 3.75 2.8438 1.7528 1.3633 3.6918 2.366 5.1562 3.0312 4.0812 11.205 14.221 20.415 25.75 23.594 4.7398 1.5479 9.8014 2.2183 14.844 2.2812-0.36463-2.309-0.44121-3.7479-1.125-6.5625 6.6376 3.2568 15.698 4.1408 20.594 3.1875 4.8957-0.95329 11.51-3.2168 16.812-6.2812 4.3156-2.4941 7.8789-5.1244 11.094-7.8438 2.4341 4.05 14.239 19.788 20.156 22.375 18.587 8.1264 27.687-1.7157 32.156-9.5312 4.5828-8.0134 0.56543-36.992-8.2812-63.625 5.0819-0.20435 9.1432 2.3169 10.281 2.5625 0.18158-1.2594-3.5844-5.6131-9.875-6.5312-0.78633-0.11477-1.6224-0.17729-2.4688-0.1875z"/>
  <path d="m290.36 531.65s-8.0357 11.071-1.7857 26.071 21.964 22.321 35.536 22.857l-1.4286-6.0714-5.3571-6.9643s8.5984 11.205 26.071 10c31.071-2.1428 65.357-52.5 67.5-63.75l-7.1429 1.4286c-45 15.179-80.714 16.607-94.286 17.321-13.571 0.71429-19.107-0.89285-19.107-0.89285z" fill="url(#z)"/>
  <path transform="translate(-5.3033 -8.0812)" d="m376.03 551.96c0 16.528-18.43 29.926-41.164 29.926s-41.164-13.398-41.164-29.926 18.43-29.926 41.164-29.926 41.164 13.398 41.164 29.926z" fill="url(#aq)"/>
  <path d="m278.91 444.72c-9.0204 2.2239-9.8269 13.487-10.25 21.156-0.21016 10.591-2.3086 28.756 13.688 58.781-0.71453 0.61794-3.3512 2.566-3.5938 4.5938 2.5991-1.6216 4.3053-2.0328 6.6875-2.9688 2.1412-0.8413 4.2582-1.724 6.375-2.625 3.2359 8.9491 10.051 16.597 17.688 22.094 5.1885 2.9607 8.9224-3.6005 12.375-6.3438 6.4227-7.1827 13.993-14.044 17.656-23.125-6.556-5.2542-15.316-7.1641-23.625-6.6875-3.6763 0.13797-7.3256 0.90494-10.75 2.2188-0.45715-19.262-1.5874-39.31-12.562-55.656-3.3914-4.5863-7.2482-11.307-13.688-11.438z"/>
  <path d="m413.38 514.03c-9.3419 22.111-23.798 37.451-37.719 49.938 5.721 8.146 11.507 17.062 20.188 22.125 4.0148 2.0487 8.6019 2.8424 12.969 2.3438-4.4376-5.6831-5.4587-13.411-4.875-20.531 0.81819-5.5535 0.13343-14.144 6.4375-16.594-0.33834-5.929 3.9234-11.627 10.125-11.531 0.8136-0.085 1.6068-0.0296 2.4062 0.0625-1.743-8.5862-3.8779-16.593-6.875-25.469-0.61454-0.0764-0.94408-0.17625-2.6562-0.34375z" fill="url(#al)"/>
  <path d="m421.28 541.75c-1.752 0.0158-4.0097 0.42163-6.1562 2-4.2932 3.1567-2.4688 17.812-2.4688 17.812s-2.0925-5.1889-2.2188-8.1562c-2.336 0.69448-4.1518 5.5452-4.5938 16.594-0.40331 10.083 2.8714 15.482 5.3125 18.062 4.9892-1.1366 9.4687-4.0868 12.188-8.9375 5.33-8.4401 2.2116-19.461 1.4688-28.844-0.45965-2.8967-0.94496-5.6622-1.4688-8.375-0.51741-0.0878-1.2295-0.16375-2.0625-0.15625z" fill="#ff4d4d"/>
  <path d="m360.97 574.12c-4.8999 2.5156-10.542 4.3498-14.844 5.1875-2.1766 0.42383-5.1933 0.47458-8.4375 0.125l5.625 10.219-8.5-10.656c-3.1937-0.56785-6.4573-1.4894-9.2812-2.875 0.68379 2.8146 0.76037 4.2535 1.125 6.5625-0.0103-1.3e-4 -0.0209 1.3e-4 -0.0312 0l0.0937 0.34375 12.125 11.719s9.2018 1.269 14-0.625 9.8125-4.4688 9.8125-4.4688l-1.6875-15.531z" fill="#eee"/>
  <path d="m293.45 522.54s6.8185-9.5964 21.213-10.859c14.395-1.2627 22.476 5.3033 22.476 5.3033-2.2728 6.3134-20.456 26.011-24.244 27.527s-18.183-15.405-19.445-21.971z" fill="#ff9bff"/>
  <path d="m279.41 446.69c-0.21245 4e-3 -0.39645 0.0464-0.59375 0.0937-6.3134 1.5152-10.012 11.991-7.3438 36.875 2.7865 25.985 14.656 40.156 14.656 40.156l5.5938-2.4062c1.356-1.6631 2.8928-3.1889 4.5625-4.5312-2.5781-2.2996-4.8799-7.562-5.7812-13.906-1.2623-8.8846 0.67064-16.53 4.3438-17.062 2.6592-0.38578 5.5045 3.0741 7.3438 8.375-0.18481-2.1926-0.40698-4.5387-0.65625-7.0938-1.9572-20.061-15.539-40.614-22.125-40.5z" fill="#eee"/>
  <path transform="matrix(.37172 -.053926 .093169 .65578 138.96 188.96)" d="m313.93 502.01c0 10.75-6.356 19.464-14.196 19.464s-14.196-8.7145-14.196-19.464c0-10.75 6.356-19.464 14.196-19.464s14.196 8.7145 14.196 19.464z" fill="url(#ac)"/>
  <path transform="matrix(.18958 -.027502 .047516 .33445 217 343.43)" d="m313.93 502.01c0 10.75-6.356 19.464-14.196 19.464s-14.196-8.7145-14.196-19.464c0-10.75 6.356-19.464 14.196-19.464s14.196 8.7145 14.196 19.464z"/>
  <path transform="matrix(.18958 -.027502 .047516 .33445 214.24 337.35)" d="m313.93 502.01c0 10.75-6.356 19.464-14.196 19.464s-14.196-8.7145-14.196-19.464c0-10.75 6.356-19.464 14.196-19.464s14.196 8.7145 14.196 19.464z" fill="#eee"/>
  <path d="m447.44 469.94c-11.411 0.15886-25.267 3.3253-39.25 9.5312-29.831 13.239-48.974 35.352-42.75 49.375 2.7433 6.1811 9.9863 9.7503 19.75 10.688 3.555-9.6195 12.354-20.114 23.906-27.375 17.409-10.941 34.462-10.402 38.094 1.1875 0.7364 2.3497 0.87783 4.9681 0.46875 7.75 19.702-12.842 30.755-29.082 25.812-40.219-1.741-3.9229-5.3067-6.7778-10.156-8.5938-2.2959 0.42847-4.6359 1.1502-6.9688 2.2812 0.78375-1.3263 1.9036-2.4486 3.125-3.4375-3.557-0.83759-7.6041-1.2491-12.031-1.1875z" fill="url(#ab)"/>
  <path d="m364.75 371.25c0.58637 4.3713-0.90681 8.8827-5.125 12.688-6.332 4.0156-13.05 12.58-20.75 13.125-5.6399 0.20298-12.184 3.6732-16.938 9.1875 0.80112 6.3189 4.1562 11.625 4.1562 11.625s2.1521-7.8546 8.4062-13.219c6.2542-5.3642 16.219-7.4375 16.219-7.4375s8.8613-6.958 13.219-11.781c4.3574-4.8233 1.9375-11.812 1.9375-11.812s-0.34431-0.96594-1.125-2.375z" fill="url(#af)"/>
  <path d="m317.82 466.85c-3.0304-8.5863 31.188-43.31 39.27-47.856s13.637-7.4499 16.92-5.4296 5.5558 12.627 5.9346 18.688c0.37881 6.0609-4.5457 13.637-4.5457 13.637s-5.0508-5.5558-11.364-5.0508-19.445 7.0711-25.128 13.511c-5.6821 6.4397-15.279 17.551-15.279 17.551z" fill="url(#ag)"/>
  <path d="m235.72 317.91c-6.0412 0.31156-11.156 3.8243-15.656 7.5 8.5753 1.9924 18.815 8.1758 19.312 17.875-1.0328 4.7268-6.5035 1.5807-8.0938-1.0625-11.61-9.7085-31.183-10.921-41.875 0.90625-13.49 12.398-16.852 31.141-19.375 48.469-0.1487 0.73602-0.26582 1.479-0.40625 2.2188 2.4067 0.49004 4.8581 0.91441 7.3438 1.2812 7.763-12.592 20.408-21.767 36.031-18.188 9.5378 1.8182 17.231 7.511 23.562 14.531 20.527-5.8612 37.236-16.266 46.969-29.25-6.6508-12.587-13.94-24.779-23.719-35.156-6.9227-5.247-15.252-9.4108-24.094-9.125z" fill="url(#aj)"/>
  <path d="m315.71 514.58c-6.5666 0.38093-14.142 2.8636-18 8.125 3.4237 6.4183 7.8051 12.367 13.906 16.406 7.3344-6.2296 14.493-13.786 19.438-21.812-4.7795-2.2109-10.097-3.0721-15.344-2.7188z" fill="url(#ak)"/>
  <path d="m279.31 448.72c-6.8503 3.1558-6.1396 12.586-6.7188 18.969-0.0546 18.758 3.3476 38.032 14.188 53.656 2.3278-0.85191 8.4306-3.6091 5.4062-6.5-4.1823-8.697-6.3764-20.362-1-28.969 1.9397-2.79 6.2553-2.2645 8.1562-0.3125-2.2791-13.2-7.4305-27.232-17.906-36.094-0.6539-0.34191-1.3471-0.85013-2.125-0.75z" fill="url(#am)"/>
  <path d="m206.38 382.09c-13.139 0.29009-18.506 7.7951-22.531 14.188-15.135 18.639 2.6907 38.595 18.938 44.344 10.426-14.713 30.812-41.062 30.812-41.062s-9.3477-16.68-24.5-17.438c-0.94702-0.0473-1.8428-0.0506-2.7188-0.0312z" fill="url(#ao)"/>
  <path d="m327.29 471.15c0.63135-0.50508 16.162-17.046 23.865-21.339 7.7024-4.2932 9.3439-6.566 10.859-5.5558 1.5152 1.0102 3.5355 5.5558 3.6618 9.3439 0.12627 3.7881 0.63134 16.794 0.63134 16.794l-36.744 13.258z" fill="url(#ap)"/>
  <path d="m166.22 667.84c0 3.1321 2.6804 5.8125 5.8125 5.8125h399.41c3.1321 0 5.8125-2.6804 5.8125-5.8125v-355.97c0-3.1321-2.6804-5.8125-5.8125-5.8125l-4.1875 10v347.59h-391.03" color="#000000" fill="#fff" style="block-progression:tb;text-indent:0;text-transform:none"/>
 </g>
</svg>
